<svg width="596" height="556" xmlns="http://www.w3.org/2000/svg" viewBox="0 0 596 556"><defs><clipPath><polygon points="1 1 2 1 1 2 1 1" style="fill:none;"/></clipPath><clipPath><polygon points="-1 -1 -2 -1 -1 -2 -1 -1" style="clip-path:url(#c); fill:none;"/></clipPath><mask x="340" y="144" width="217" height="50" maskUnits="userSpaceOnUse"><g><path d="M340,145h200c8.837,0,16,7.163,16,16v16c0,8.837-7.163,16-16,16h-200v-48Z" style="fill:#fff;"/></g></mask><mask x="340" y="202" width="217" height="50" maskUnits="userSpaceOnUse"><g><path d="M340,203h200c8.837,0,16,7.163,16,16v16c0,8.837-7.163,16-16,16h-200v-48Z" style="fill:#fff;"/></g></mask><clipPath><polygon points="1 1 2 1 1 2 1 1" style="fill:none;"/></clipPath><clipPath><polygon points="-1 -1 -2 -1 -1 -2 -1 -1" style="clip-path:url(#i); fill:none;"/></clipPath><clipPath><polygon points="1 1 2 1 1 2 1 1" style="fill:none;"/></clipPath><clipPath><polygon points="-1 -1 -2 -1 -1 -2 -1 -1" style="clip-path:url(#k); fill:none;"/></clipPath><clipPath><polygon points="1 1 2 1 1 2 1 1" style="fill:none;"/></clipPath><clipPath><polygon points="-1 -1 -2 -1 -1 -2 -1 -1" style="clip-path:url(#m); fill:none;"/></clipPath></defs><rect x=".5" y=".5" width="595" height="555" rx="15.5" ry="15.5" style="fill:#e6e6e6;"/><path d="M256,10.5h77c.8284,0,1.5.6716,1.5,1.5h0c0,.8284-.6716,1.5-1.5,1.5h-77c-.8284,0-1.5-.6716-1.5-1.5h0c0-.8284.6716-1.5,1.5-1.5Z" style="fill:#ccc;"/><path d="M572.215,15.7846c-.097-.097-.161-.2095-.192-.3375-.031-.132-.031-.2619,0-.39.031-.128.093-.2386.187-.3317l2.73-2.7298-2.73-2.7239c-.094-.0931-.156-.2037-.187-.3318-.031-.128-.031-.2561,0-.3841.031-.1319.095-.2464.192-.3434.094-.0931.204-.1552.332-.1862.132-.0349.262-.0349.39,0,.132.031.245.0912.338.1804l2.725,2.7297,2.731-2.7239c.093-.0931.202-.1552.326-.1862.128-.0349.256-.0349.384,0,.132.031.245.0951.338.1921.101.0931.167.2057.198.3376.031.1281.031.2561,0,.3841-.031.128-.095.2386-.192.3318l-2.719,2.7239,2.719,2.7298c.097.0931.161.2037.192.3317.031.1281.031.258,0,.39-.031.128-.097.2386-.198.3317-.093.097-.206.163-.338.1979-.128.0311-.256.0311-.384,0-.124-.031-.233-.095-.326-.1921l-2.731-2.7239-2.725,2.7298c-.093.0892-.2061.1513-.338.1862-.128.0311-.258.0311-.39,0-.128-.0349-.238-.0989-.332-.1921Z" style="fill:#ccc;"/><path d="M34,34.5c-1.38,0-2.5-1.12-2.5-2.5s1.12-2.5,2.5-2.5,2.5,1.12,2.5,2.5-1.12,2.5-2.5,2.5ZM34,30.5c-.8267,0-1.5.6733-1.5,1.5s.6733,1.5,1.5,1.5,1.5-.6733,1.5-1.5-.6733-1.5-1.5-1.5Z" style="fill:#545454;"/><path d="M36.14,38.7933c-.14,0-.28-.02-.42-.0533-.4133-.1133-.76-.3733-.98-.74l-.08-.1333c-.3933-.68-.9333-.68-1.3267,0l-.0733.1266c-.22.3734-.5667.64-.98.7467-.42.1133-.8533.0533-1.22-.1667l-1.1467-.66c-.4066-.2333-.7-.6133-.8266-1.0733-.12-.46-.06-.9333.1733-1.34.1933-.34.2467-.6467.1333-.84-.1133-.1933-.4-.3067-.7933-.3067-.9733,0-1.7667-.7933-1.7667-1.7666v-1.1734c0-.9733.7934-1.7666,1.7667-1.7666.3933,0,.68-.1134.7933-.3067.1134-.1933.0667-.5-.1333-.84-.2333-.4067-.2933-.8867-.1733-1.34.12-.46.4133-.84.8266-1.0733l1.1534-.66c.7533-.4467,1.7466-.1867,2.2.58l.08.1333c.3933.68.9333.68,1.3266,0l.0734-.1267c.4533-.7733,1.4466-1.0333,2.2066-.58l1.1467.66c.4067.2334.7.6134.8267,1.0734.12.46.06.9333-.1734,1.34-.1933.34-.2466.6466-.1333.84.1133.1933.4.3066.7933.3066.9734,0,1.7667.7934,1.7667,1.7667v1.1733c0,.9734-.7933,1.7667-1.7667,1.7667-.3933,0-.68.1133-.7933.3067-.1133.1933-.0667.5.1333.84.2334.4066.3.8866.1734,1.34-.12.46-.4134.84-.8267,1.0733l-1.1533.66c-.2534.14-.5267.2133-.8067.2133ZM34,36.3267c.5933,0,1.1467.3733,1.5267,1.0333l.0733.1267c.08.14.2133.24.3733.28s.32.02.4534-.06l1.1533-.6667c.1733-.1.3067-.2667.36-.4667.0533-.2.0267-.4066-.0733-.58-.38-.6533-.4267-1.3266-.1334-1.84.2934-.5133.9-.8066,1.66-.8066.4267,0,.7667-.34.7667-.7667v-1.1733c0-.42-.34-.7667-.7667-.7667-.76,0-1.3666-.2933-1.66-.8067-.2933-.5133-.2466-1.1866.1334-1.84.1-.1733.1266-.38.0733-.58-.0533-.2-.18-.36-.3533-.4666l-1.1534-.66c-.2866-.1734-.6666-.0734-.84.22l-.0733.1266c-.38.66-.9333,1.0334-1.5267,1.0334s-1.1466-.3734-1.5266-1.0334l-.0734-.1333c-.1666-.28-.54-.38-.8266-.2133l-1.1534.6666c-.1733.1-.3066.2667-.36.4667-.0533.2-.0266.4067.0734.58.38.6533.4266,1.3267.1333,1.84s-.9.8067-1.66.8067c-.4267,0-.7667.34-.7667.7666v1.1734c0,.42.34.7666.7667.7666.76,0,1.3667.2934,1.66.8067.2933.5133.2467,1.1867-.1333,1.84-.1.1733-.1267.38-.0734.58.0534.2.18.36.3534.4667l1.1533.66c.14.0866.3067.1066.46.0666.16-.04.2933-.1466.38-.2866l.0733-.1267c.38-.6533.9334-1.0333,1.5267-1.0333Z" style="fill:#545454;"/><path d="M34,71.1667c-3.0333,0-5.5-2.4667-5.5-5.5v-3.3333c0-3.0334,2.4667-5.5,5.5-5.5s5.5,2.4666,5.5,5.5v3.3333c0,3.0333-2.4667,5.5-5.5,5.5ZM34,57.8334c-2.48,0-4.5,2.02-4.5,4.5v3.3333c0,2.48,2.02,4.5,4.5,4.5s4.5-2.02,4.5-4.5v-3.3333c0-2.48-2.02-4.5-4.5-4.5Z" style="fill:#545454;"/><path d="M34,63.8333c-.8267,0-1.5-.6733-1.5-1.5v-1.3333c0-.8267.6733-1.5,1.5-1.5s1.5.6733,1.5,1.5v1.3333c0,.8267-.6733,1.5-1.5,1.5ZM34,60.5c-.2733,0-.5.2267-.5.5v1.3333c0,.2734.2267.5.5.5s.5-.2266.5-.5v-1.3333c0-.2733-.2267-.5-.5-.5Z" style="fill:#545454;"/><path d="M34,60.5c-.2733,0-.5-.2266-.5-.5v-2.6666c0-.2734.2267-.5.5-.5s.5.2266.5.5v2.6666c0,.2734-.2267.5-.5.5Z" style="fill:#545454;"/><rect x="16" y="88" width="36" height="36" rx="8" ry="8" style="fill:#f2f2f2;"/><path d="M37,111.833h-6c-.5,0-.8667-.02-1.18-.066-2.2133-.24-2.6533-1.567-2.6533-3.767v-4c0-2.2.44-3.527,2.6733-3.773.2933-.04.66-.06,1.16-.06h6c.5,0,.8667.02,1.18.066,2.2133.24,2.6533,1.567,2.6533,3.767v4c0,2.2-.44,3.527-2.6733,3.773-.2933.04-.66.06-1.16.06ZM31,101.167c-.4533,0-.7733.02-1.0333.053-1.3534.153-1.8.573-1.8,2.78v4c0,2.207.4466,2.627,1.78,2.78.28.04.6.053,1.0533.053h6c.4533,0,.7733-.02,1.0333-.053,1.3534-.147,1.8-.573,1.8-2.78v-4c0-2.207-.4466-2.627-1.78-2.78-.28-.04-.6-.053-1.0533-.053h-6Z"/><path d="M37.3333,105.167h-2.3333c-.2733,0-.5-.227-.5-.5,0-.274.2267-.5.5-.5h2.3333c.2734,0,.5.226.5.5,0,.273-.2266.5-.5.5Z"/><path d="M32.7333,105.333c-.3666,0-.6666-.3-.6666-.666,0-.367.2933-.667.6666-.667h.0067c.3667,0,.6667.3.6667.667,0,.366-.3.666-.6734.666Z"/><path d="M30.7333,105.333c-.3666,0-.6666-.3-.6666-.666,0-.367.2933-.667.6666-.667.3667,0,.6667.3.6667.667,0,.366-.2933.666-.6667.666Z"/><path d="M37.3333,108.833h-6.6533c-.2733,0-.5067-.226-.5067-.5,0-.273.22-.5.4934-.5h6.6666c.2734,0,.5.227.5.5,0,.274-.2266.5-.5.5Z"/><path d="M37.7067,151.98h-7.4134c-2.6533,0-3.46-.807-3.46-3.46v-4.227c0-2.653.8067-3.46,3.46-3.46h7.4067c2.6533,0,3.46.807,3.46,3.46v4.22c.0067,2.66-.8,3.467-3.4533,3.467ZM30.2933,141.833c-2.0933,0-2.46.367-2.46,2.46v4.22c0,2.094.3667,2.46,2.46,2.46h7.4067c2.0933,0,2.46-.366,2.46-2.46v-4.22c0-2.093-.3667-2.46-2.46-2.46h-7.4067Z" style="fill:#545454;"/><path d="M34,155.167c-.2733,0-.5-.227-.5-.5v-3.187c0-.273.2267-.5.5-.5s.5.227.5.5v3.187c0,.273-.2267.5-.5.5Z" style="fill:#545454;"/><path d="M40.6667,149.167h-13.3334c-.2733,0-.5-.227-.5-.5,0-.274.2267-.5.5-.5h13.3334c.2733,0,.5.226.5.5,0,.273-.2267.5-.5.5Z" style="fill:#545454;"/><path d="M37,155.167h-6c-.2733,0-.5-.227-.5-.5,0-.274.2267-.5.5-.5h6c.2733,0,.5.226.5.5,0,.273-.2267.5-.5.5Z" style="fill:#545454;"/><path d="M37.6934,520.04c-1.18,0-2.14-.96-2.14-2.14s.96-2.14,2.14-2.14,2.14.96,2.14,2.14-.96,2.14-2.14,2.14ZM37.6934,516.753c-.6267,0-1.14.514-1.14,1.14,0,.627.5133,1.14,1.14,1.14s1.14-.513,1.14-1.14c0-.626-.5134-1.14-1.14-1.14Z" style="fill:#545454;"/><path d="M30.3067,520.04c-1.18,0-2.14-.96-2.14-2.14s.96-2.14,2.14-2.14,2.14.96,2.14,2.14-.96,2.14-2.14,2.14ZM30.3067,516.753c-.6267,0-1.14.514-1.14,1.14,0,.627.5133,1.14,1.14,1.14s1.14-.513,1.14-1.14c0-.626-.5067-1.14-1.14-1.14Z" style="fill:#545454;"/><path d="M37.6934,528.247c-1.18,0-2.14-.96-2.14-2.14s.96-2.14,2.14-2.14,2.14.96,2.14,2.14-.96,2.14-2.14,2.14ZM37.6934,524.96c-.6267,0-1.14.513-1.14,1.14s.5133,1.14,1.14,1.14,1.14-.513,1.14-1.14-.5134-1.14-1.14-1.14Z" style="fill:#545454;"/><path d="M30.3067,528.247c-1.18,0-2.14-.96-2.14-2.14s.96-2.14,2.14-2.14,2.14.96,2.14,2.14-.96,2.14-2.14,2.14ZM30.3067,524.96c-.6267,0-1.14.513-1.14,1.14s.5133,1.14,1.14,1.14,1.14-.513,1.14-1.14-.5067-1.14-1.14-1.14Z" style="fill:#545454;"/><rect x="68" y="24" width="512" height="512" rx="16" ry="16" style="fill:none;"/><rect x="68" y="24" width="512" height="512" rx="16" ry="16" style="fill:#f2f2f2;"/><rect x="469.5" y="48.5" width="86" height="27" rx="9.5" ry="9.5" style="fill:#fff;"/><path d="M543,63.4879c-.242,0-.485-.0935-.668-.2769l-2.257-2.2567c-.1-.1004-.1-.2666,0-.3669.101-.1004.267-.1004.367,0l2.257,2.2567c.166.1661.436.1661.6021,0l2.257-2.2567c.1-.1004.266-.1004.367,0,.1.1003.1.2665,0,.3669l-2.257,2.2567c-.183.1834-.426.2769-.668.2769Z" style="fill:#292d32;"/><rect x="469.5" y="48.5" width="86" height="27" rx="9.5" ry="9.5" style="fill:none; stroke:#e6e6e6;"/><g style="clip-path:url(#b);"><path d="M556,91.5H92v1h464v-1Z" style="fill:#ccc;"/></g><path d="M94.3614,122.5c-.0877,0-.1754-.032-.2446-.102-.1338-.133-.1338-.355,0-.489l3.0085-3.008c.2215-.222.2215-.582,0-.803l-3.0085-3.009c-.1338-.133-.1338-.355,0-.489.1338-.133.3553-.133.4891,0l3.0085,3.009c.2354.235.3692.554.3692.89,0,.337-.1292.656-.3692.891l-3.0085,3.008c-.0692.065-.1569.102-.2445.102Z" style="fill:#292d32;"/><path d="M140,145.5h199.5v47h-199.5c-8.56,0-15.5-6.94-15.5-15.5v-16c0-8.56,6.94-15.5,15.5-15.5Z" style="fill:#fff;"/><path d="M287.232,174v-1.316h2.744v-7.308h-.112l-2.268,2.422-.966-.868,2.492-2.702h2.408v8.456h2.38v1.316h-6.678ZM298.623,174.168c-.542,0-1.027-.089-1.456-.266-.42-.177-.78-.429-1.078-.756-.29-.336-.514-.737-.672-1.204-.159-.467-.238-.994-.238-1.582,0-.709.107-1.377.322-2.002.214-.625.49-1.199.826-1.722s.709-.985,1.12-1.386c.42-.411.83-.751,1.232-1.022h2.1c-.551.401-1.046.789-1.484,1.162-.439.373-.822.756-1.148,1.148-.327.392-.602.807-.826,1.246-.215.439-.383.919-.504,1.442l.098.028c.102-.196.219-.378.35-.546.14-.177.298-.331.476-.462.186-.131.396-.233.63-.308.233-.075.504-.112.812-.112.41,0,.788.07,1.134.21.354.14.658.345.91.616.261.261.462.579.602.952.149.373.224.789.224,1.246,0,.495-.084.947-.252,1.358-.159.401-.388.747-.686,1.036-.299.289-.663.518-1.092.686-.42.159-.887.238-1.4.238ZM298.623,172.88c.569,0,1.012-.149,1.33-.448.317-.308.476-.756.476-1.344v-.196c0-.588-.159-1.031-.476-1.33-.318-.308-.761-.462-1.33-.462-.57,0-1.013.154-1.33.462-.318.299-.476.742-.476,1.33v.196c0,.588.158,1.036.476,1.344.317.299.76.448,1.33.448Z"/><path d="M312.02,166.808h.96v1.008h.048c.16-.392.392-.68.696-.864.312-.192.684-.288,1.116-.288.384,0,.732.076,1.044.228.312.152.576.368.792.648.224.28.392.62.504,1.02.12.4.18.848.18,1.344s-.06.944-.18,1.344c-.112.4-.28.74-.504,1.02-.216.28-.48.496-.792.648s-.66.228-1.044.228c-.84,0-1.444-.384-1.812-1.152h-.048v3.408h-.96v-8.592ZM314.576,172.28c.544,0,.972-.168,1.284-.504.312-.344.468-.792.468-1.344v-1.056c0-.552-.156-.996-.468-1.332-.312-.344-.74-.516-1.284-.516-.216,0-.424.032-.624.096-.192.056-.36.136-.504.24s-.26.232-.348.384c-.08.144-.12.3-.12.468v2.304c0,.2.04.38.12.54.088.152.204.284.348.396.144.104.312.184.504.24.2.056.408.084.624.084ZM318.072,173l2.292-3.12-2.196-3.072h1.128l1.572,2.304h.036l1.632-2.304h1.068l-2.184,3,2.232,3.192h-1.128l-1.608-2.424h-.036l-1.74,2.424h-1.068Z" style="fill:#545454;"/><path d="M140,145.5h199.5v47h-199.5c-8.56,0-15.5-6.94-15.5-15.5v-16c0-8.56,6.94-15.5,15.5-15.5Z" style="fill:none; stroke:#e6e6e6;"/><path d="M340,145h200c8.837,0,16,7.163,16,16v16c0,8.837-7.163,16-16,16h-200v-48Z" style="fill:#fff;"/><rect x="356" y="153" width="32" height="32" rx="4" ry="4" style="fill:#545454;"/><path d="M405.474,171.326h-2.212l-.462,2.674h-1.078l.462-2.674h-1.624v-1.022h1.806l.406-2.38h-1.624v-1.022h1.806l.462-2.674h1.064l-.462,2.674h2.212l.462-2.674h1.078l-.462,2.674h1.624v1.022h-1.806l-.406,2.38h1.624v1.022h-1.806l-.462,2.674h-1.064l.462-2.674ZM405.642,170.304l.42-2.38h-2.212l-.42,2.38h2.212ZM414.514,174v-1.904h-4.536v-1.358l3.962-6.51h2.072v6.622h1.33v1.246h-1.33v1.904h-1.498ZM411.322,170.85h3.192v-5.18h-.098l-3.094,5.18ZM422.111,174.168c-.542,0-1.027-.089-1.456-.266-.42-.177-.78-.429-1.078-.756-.29-.336-.514-.737-.672-1.204-.159-.467-.238-.994-.238-1.582,0-.709.107-1.377.322-2.002.214-.625.49-1.199.826-1.722s.709-.985,1.12-1.386c.42-.411.83-.751,1.232-1.022h2.1c-.551.401-1.046.789-1.484,1.162-.439.373-.822.756-1.148,1.148-.327.392-.602.807-.826,1.246-.215.439-.383.919-.504,1.442l.098.028c.102-.196.219-.378.35-.546.14-.177.298-.331.476-.462.186-.131.396-.233.63-.308.233-.075.504-.112.812-.112.41,0,.788.07,1.134.21.354.14.658.345.91.616.261.261.462.579.602.952.149.373.224.789.224,1.246,0,.495-.084.947-.252,1.358-.159.401-.388.747-.686,1.036-.299.289-.663.518-1.092.686-.42.159-.887.238-1.4.238ZM422.111,172.88c.569,0,1.012-.149,1.33-.448.317-.308.476-.756.476-1.344v-.196c0-.588-.159-1.031-.476-1.33-.318-.308-.761-.462-1.33-.462-.57,0-1.013.154-1.33.462-.318.299-.476.742-.476,1.33v.196c0,.588.158,1.036.476,1.344.317.299.76.448,1.33.448ZM427.481,174v-9.772h6.104v1.4h-4.522v2.716h4.018v1.4h-4.018v4.256h-1.582ZM435.466,174v-9.772h6.104v1.4h-4.522v2.716h4.018v1.4h-4.018v4.256h-1.582ZM448.693,174l-.882-2.646h-3.654l-.854,2.646h-1.61l3.332-9.772h1.988l3.332,9.772h-1.652ZM446.019,165.684h-.07l-1.414,4.312h2.884l-1.4-4.312ZM454.882,174.168c-.541,0-1.026-.089-1.456-.266-.42-.177-.779-.429-1.078-.756-.289-.336-.513-.737-.672-1.204-.158-.467-.238-.994-.238-1.582,0-.709.108-1.377.322-2.002.215-.625.49-1.199.826-1.722s.71-.985,1.12-1.386c.42-.411.831-.751,1.232-1.022h2.1c-.55.401-1.045.789-1.484,1.162-.438.373-.821.756-1.148,1.148-.326.392-.602.807-.826,1.246-.214.439-.382.919-.504,1.442l.098.028c.103-.196.22-.378.35-.546.14-.177.299-.331.476-.462.187-.131.397-.233.63-.308.234-.075.504-.112.812-.112.411,0,.789.07,1.134.21.355.14.658.345.91.616.262.261.462.579.602.952.15.373.224.789.224,1.246,0,.495-.084.947-.252,1.358-.158.401-.387.747-.686,1.036-.298.289-.662.518-1.092.686-.42.159-.886.238-1.4.238ZM454.882,172.88c.57,0,1.013-.149,1.33-.448.318-.308.476-.756.476-1.344v-.196c0-.588-.158-1.031-.476-1.33-.317-.308-.76-.462-1.33-.462-.569,0-1.012.154-1.33.462-.317.299-.476.742-.476,1.33v.196c0,.588.159,1.036.476,1.344.318.299.761.448,1.33.448Z"/><path d="M537,170.488c-.242,0-.485-.094-.668-.277l-2.257-2.257c-.1-.1-.1-.266,0-.367.101-.1.267-.1.367,0l2.257,2.257c.166.166.436.166.6021,0l2.257-2.257c.1-.1.266-.1.367,0,.1.101.1.267,0,.367l-2.257,2.257c-.183.183-.426.277-.668.277Z" style="fill:#292d32;"/><g style="mask:url(#d);"><path d="M340,144h200c9.389,0,17,7.611,17,17h-2c0-8.284-6.716-15-15-15h-200v-2ZM557,177c0,9.389-7.611,17-17,17h-200v-2h200c8.284,0,15-6.716,15-15h2ZM340,193v-48,48ZM540,144c9.389,0,17,7.611,17,17v16c0,9.389-7.611,17-17,17v-2c8.284,0,15-6.716,15-15v-16c0-8.284-6.716-15-15-15v-2Z" style="fill:#e6e6e6;"/></g><path d="M140,203.5h199.5v47h-199.5c-8.56,0-15.5-6.94-15.5-15.5v-16c0-8.56,6.94-15.5,15.5-15.5Z" style="fill:#fff;"/><path d="M254.83,223.628v8.372h-1.582v-8.372h-2.912v-1.4h7.406v1.4h-2.912ZM263.184,223.628v8.372h-1.582v-8.372h-2.912v-1.4h7.406v1.4h-2.912Z" style="fill:#ccc;"/><path d="M287.83,223.628v8.372h-1.582v-8.372h-2.912v-1.4h7.406v1.4h-2.912ZM294.188,232c-.532,0-.933-.135-1.204-.406-.271-.28-.406-.672-.406-1.176v-4.452h-1.134v-1.246h.616c.252,0,.425-.056.518-.168.103-.112.154-.294.154-.546v-1.274h1.372v1.988h1.526v1.246h-1.526v4.788h1.414v1.246h-1.33Z"/><path d="M316.108,232c-.532,0-.933-.135-1.204-.406-.271-.28-.406-.672-.406-1.176v-4.452h-1.134v-1.246h.616c.252,0,.425-.056.518-.168.103-.112.154-.294.154-.546v-1.274h1.372v1.988h1.526v1.246h-1.526v4.788h1.414v1.246h-1.33ZM321.126,232c-.532,0-.934-.135-1.204-.406-.271-.28-.406-.672-.406-1.176v-4.452h-1.134v-1.246h.616c.252,0,.424-.056.518-.168.102-.112.154-.294.154-.546v-1.274h1.372v1.988h1.526v1.246h-1.526v4.788h1.414v1.246h-1.33Z" style="fill:#ccc;"/><path d="M140,203.5h199.5v47h-199.5c-8.56,0-15.5-6.94-15.5-15.5v-16c0-8.56,6.94-15.5,15.5-15.5Z" style="fill:none; stroke:#e6e6e6;"/><path d="M340,203h200c8.837,0,16,7.163,16,16v16c0,8.837-7.163,16-16,16h-200v-48Z" style="fill:#fff;"/><path d="M537,228.488c-.242,0-.485-.094-.668-.277l-2.257-2.257c-.1-.1-.1-.266,0-.367.101-.1.267-.1.367,0l2.257,2.257c.166.166.436.166.6021,0l2.257-2.257c.1-.1.266-.1.367,0,.1.101.1.267,0,.367l-2.257,2.257c-.183.183-.426.277-.668.277Z" style="fill:#292d32;"/><g style="mask:url(#f);"><path d="M340,202h200c9.389,0,17,7.611,17,17h-2c0-8.284-6.716-15-15-15h-200v-2ZM557,235c0,9.389-7.611,17-17,17h-200v-2h200c8.284,0,15-6.716,15-15h2ZM340,251v-48,48ZM540,202c9.389,0,17,7.611,17,17v16c0,9.389-7.611,17-17,17v-2c8.284,0,15-6.716,15-15v-16c0-8.284-6.716-15-15-15v-2Z" style="fill:#e6e6e6;"/></g><g style="clip-path:url(#h);"><path d="M556,266.5H92v1h464v-1Z" style="fill:#ccc;"/></g><path d="M94.3614,297.5c-.0877,0-.1754-.032-.2446-.102-.1338-.133-.1338-.355,0-.489l3.0085-3.008c.2215-.222.2215-.582,0-.803l-3.0085-3.009c-.1338-.133-.1338-.355,0-.489.1338-.133.3553-.133.4891,0l3.0085,3.009c.2354.235.3692.554.3692.89,0,.337-.1292.656-.3692.891l-3.0085,3.008c-.0692.065-.1569.102-.2445.102Z" style="fill:#292d32;"/><rect x="124.5" y="320.5" width="431" height="47" rx="15.5" ry="15.5" style="fill:#fff;"/><path d="M167.267,349.333h-7.867c-.273,0-.5-.226-.5-.5,0-.273.227-.5.5-.5h7.867c.673,0,.9-.14.9-.986v-.694c0-.846-.227-.986-.9-.986h-7.867c-.273,0-.5-.227-.5-.5,0-.274.227-.5.5-.5h7.867c1.28,0,1.9.653,1.9,1.986v.694c0,1.333-.62,1.986-1.9,1.986Z" style="fill:#ccc;"/><path d="M163.933,343.667h-4.533c-.273,0-.5-.227-.5-.5,0-.274.227-.5.5-.5h4.533c.674,0,.9-.14.9-.987v-.693c0-.847-.226-.987-.9-.987h-4.533c-.273,0-.5-.227-.5-.5s.227-.5.5-.5h4.533c1.28,0,1.9.653,1.9,1.987v.693c0,1.333-.62,1.987-1.9,1.987Z" style="fill:#ccc;"/><path d="M159.333,351.16c-.273,0-.5-.227-.5-.5v-13.333c0-.274.227-.5.5-.5.274,0,.5.226.5.5v13.333c0,.273-.226.5-.5.5Z" style="fill:#ccc;"/><path d="M231.738,349.333h-7.049c-1.253,0-1.86-.653-1.86-1.986v-.694c0-1.333.607-1.986,1.86-1.986h7.049c1.253,0,1.86.653,1.86,1.986v.694c0,1.333-.607,1.986-1.86,1.986ZM224.689,345.667c-.659,0-.881.14-.881.986v.694c0,.846.222.986.881.986h7.049c.659,0,.881-.14.881-.986v-.694c0-.846-.222-.986-.881-.986h-7.049Z"/><path d="M230.433,343.667h-4.438c-1.253,0-1.86-.654-1.86-1.987v-.693c0-1.34.607-1.987,1.86-1.987h4.438c1.253,0,1.86.653,1.86,1.987v.693c0,1.333-.607,1.987-1.86,1.987ZM225.995,340c-.659,0-.881.14-.881.987v.693c0,.847.222.987.881.987h4.438c.659,0,.881-.14.881-.987v-.693c0-.847-.222-.987-.881-.987h-4.438Z"/><path d="M228.214,351.167c-.268,0-.49-.227-.49-.5v-1.6c0-.274.222-.5.49-.5.267,0,.489.226.489.5v1.6c0,.273-.222.5-.489.5Z"/><path d="M228.214,345.167c-.268,0-.49-.227-.49-.5v-1.334c0-.273.222-.5.49-.5.267,0,.489.227.489.5v1.334c0,.273-.222.5-.489.5Z"/><path d="M228.214,339.627c-.268,0-.49-.227-.49-.5v-1.794c0-.273.222-.5.49-.5.267,0,.489.22.489.5v1.794c0,.28-.222.5-.489.5Z"/><path d="M304.671,349.333h-7.701c-1.253,0-1.86-.653-1.86-1.986v-.694c0-1.333.607-1.986,1.86-1.986h7.701c.268,0,.49.226.49.5,0,.273-.222.5-.49.5h-7.701c-.659,0-.881.14-.881.986v.694c0,.846.222.986.881.986h7.701c.268,0,.49.227.49.5,0,.274-.222.5-.49.5Z" style="fill:#ccc;"/><path d="M304.671,343.667h-4.437c-1.254,0-1.86-.654-1.86-1.987v-.693c0-1.34.606-1.987,1.86-1.987h4.437c.268,0,.49.227.49.5s-.222.5-.49.5h-4.437c-.66,0-.882.14-.882.987v.693c0,.847.222.987.882.987h4.437c.268,0,.49.226.49.5,0,.273-.222.5-.49.5Z" style="fill:#ccc;"/><path d="M304.737,351.16c-.268,0-.49-.227-.49-.5v-13.333c0-.274.222-.5.49-.5.267,0,.489.226.489.5v13.333c0,.273-.222.5-.489.5Z" style="fill:#ccc;"/><path d="M340,328v32" style="fill:none; stroke:#e6e6e6;"/><path d="M382.519,349.167h-.643c-1.241,0-1.84-.62-1.84-1.9v-7.867c0-.273.21-.5.463-.5s.463.227.463.5v7.867c0,.673.13.9.914.9h.643c.784,0,.914-.227.914-.9v-7.867c0-.273.21-.5.463-.5s.463.227.463.5v7.867c0,1.28-.599,1.9-1.84,1.9Z" style="fill:#ccc;"/><path d="M377.269,345.833h-.643c-1.241,0-1.84-.62-1.84-1.9v-4.533c0-.273.21-.5.463-.5s.463.227.463.5v4.533c0,.674.13.9.914.9h.643c.784,0,.914-.226.914-.9v-4.533c0-.273.21-.5.463-.5s.463.227.463.5v4.533c0,1.28-.599,1.9-1.84,1.9Z" style="fill:#ccc;"/><path d="M385.588,339.833h-12.353c-.259,0-.463-.226-.463-.5,0-.273.204-.5.463-.5h12.353c.254,0,.464.227.464.5,0,.274-.204.5-.464.5Z" style="fill:#ccc;"/><path d="M445.347,349.5h-.694c-1.34,0-1.986-.62-1.986-1.9v-7.2c0-1.28.653-1.9,1.986-1.9h.694c1.333,0,1.986.62,1.986,1.9v7.2c0,1.28-.653,1.9-1.986,1.9ZM444.653,339.5c-.846,0-.986.227-.986.9v7.2c0,.673.14.9.986.9h.694c.846,0,.986-.227.986-.9v-7.2c0-.673-.14-.9-.986-.9h-.694Z"/><path d="M451.013,348.167h-.693c-1.34,0-1.987-.62-1.987-1.9v-4.534c0-1.28.654-1.9,1.987-1.9h.693c1.34,0,1.987.62,1.987,1.9v4.534c0,1.28-.653,1.9-1.987,1.9ZM450.32,340.833c-.847,0-.987.227-.987.9v4.534c0,.673.14.9.987.9h.693c.847,0,.987-.227.987-.9v-4.534c0-.673-.14-.9-.987-.9h-.693Z"/><path d="M442.933,344.5h-1.6c-.273,0-.5-.227-.5-.5s.22-.5.5-.5h1.6c.274,0,.5.227.5.5s-.22.5-.5.5Z"/><path d="M448.667,344.5h-1.334c-.273,0-.5-.227-.5-.5s.227-.5.5-.5h1.334c.273,0,.5.227.5.5s-.227.5-.5.5Z"/><path d="M454.667,344.5h-1.8c-.274,0-.5-.227-.5-.5s.226-.5.5-.5h1.8c.273,0,.5.227.5.5s-.22.5-.5.5Z"/><path d="M521.072,349.1c-.2531,0-.463-.227-.463-.5v-7.867c0-.673-.13-.9-.914-.9h-.642c-.785,0-.914.227-.914.9v7.867c0,.273-.21.5-.464.5-.253,0-.463-.227-.463-.5v-7.867c0-1.28.605-1.9,1.841-1.9h.642c1.241,0,1.841.62,1.841,1.9v7.867c0,.273-.21.5-.464.5Z" style="fill:#ccc;"/><path d="M515.822,349.1c-.2531,0-.463-.227-.463-.5v-4.533c0-.674-.13-.9-.914-.9h-.642c-.785,0-.915.226-.915.9v4.533c0,.273-.21.5-.463.5s-.463-.227-.463-.5v-4.533c0-1.28.605-1.9,1.841-1.9h.642c1.241,0,1.841.62,1.841,1.9v4.533c0,.273-.21.5-.464.5Z" style="fill:#ccc;"/><path d="M522.765,349.167h-12.353c-.254,0-.464-.227-.464-.5,0-.274.204-.5.464-.5h12.353c.253,0,.463.226.463.5,0,.273-.204.5-.463.5Z" style="fill:#ccc;"/><rect x="124.5" y="320.5" width="431" height="47" rx="15.5" ry="15.5" style="fill:none; stroke:#e6e6e6;"/><path d="M140,378.5h415.5v47H140c-8.56,0-15.5-6.94-15.5-15.5v-16c0-8.56,6.94-15.5,15.5-15.5Z" style="fill:#fff;"/><path d="M522.667,390.5h13.3333c6.3513,0,11.5,5.1487,11.5,11.5h0c0,6.3513-5.1487,11.5-11.5,11.5h-13.3333c-6.3513,0-11.5-5.1487-11.5-11.5h0c0-6.3513,5.1487-11.5,11.5-11.5Z" style="stroke:#e6e6e6;"/><path d="M536.5,393h0c4.6944,0,8.5,3.8056,8.5,8.5v1c0,4.6944-3.8056,8.5-8.5,8.5h0c-4.6944,0-8.5-3.8056-8.5-8.5v-1c0-4.6944,3.8056-8.5,8.5-8.5Z" style="fill:#fff;"/><path d="M140,378.5h415.5v47H140c-8.56,0-15.5-6.94-15.5-15.5v-16c0-8.56,6.94-15.5,15.5-15.5Z" style="fill:none; stroke:#e6e6e6;"/><path d="M140,436.5h415.5v47H140c-8.56,0-15.5-6.94-15.5-15.5v-16c0-8.56,6.94-15.5,15.5-15.5Z" style="fill:#fff;"/><path d="M522.667,448.5h13.3333c6.3513,0,11.5,5.1487,11.5,11.5h0c0,6.3513-5.1487,11.5-11.5,11.5h-13.3333c-6.3513,0-11.5-5.1487-11.5-11.5h0c0-6.3513,5.1487-11.5,11.5-11.5Z" style="fill:#e6e6e6; stroke:#e6e6e6;"/><path d="M522.5,451h0c4.6944,0,8.5,3.8056,8.5,8.5v1c0,4.6944-3.8056,8.5-8.5,8.5h0c-4.6944,0-8.5-3.8056-8.5-8.5v-1c0-4.6944,3.8056-8.5,8.5-8.5Z" style="fill:#fff;"/><path d="M140,436.5h415.5v47H140c-8.56,0-15.5-6.94-15.5-15.5v-16c0-8.56,6.94-15.5,15.5-15.5Z" style="fill:none; stroke:#e6e6e6;"/><g style="clip-path:url(#j);"><path d="M556,499.5H92v1h464v-1Z" style="fill:#ccc;"/></g><path d="M94.3614,530.5c-.0877,0-.1754-.032-.2446-.102-.1338-.133-.1338-.355,0-.489l3.0085-3.008c.2215-.222.2215-.582,0-.803l-3.0085-3.009c-.1338-.133-.1338-.355,0-.489.1338-.133.3553-.133.4891,0l3.0085,3.009c.2354.235.3692.554.3692.89,0,.337-.1292.656-.3692.891l-3.0085,3.008c-.0692.065-.1569.102-.2445.102Z" style="fill:#292d32;"/><g style="clip-path:url(#l);"><path d="M556,552.5H92v1h464v-1Z" style="fill:#ccc;"/></g><rect x=".5" y=".5" width="595" height="555" rx="15.5" ry="15.5" style="fill:none; stroke:#ccc;"/><path d="M480.4404,67.228c.2959-.6318.5322-1.2603.708-1.8838.1758-.624.3047-1.2964.3838-2.0161.0801-.7202.1201-1.5522.1201-2.4961v-2.7002h8.46v2.6641h-8.208v-.564h7.6084v-1.5361h-7.2725v2.2681c-.0078,1.4004-.1133,2.6143-.3174,3.6421-.2041,1.0283-.5342,2.0264-.9902,2.9941l-.4922-.3721ZM482.877,62.0801h7.3682v4.4277c0,.2642-.0361.4663-.1084.606-.0723.1401-.1924.2422-.3604.3062s-.4033.0962-.708.0962h-.6592l-.1201-.5522h.6719c.2881,0,.4795-.0376.5762-.1138.0957-.0762.1436-.2339.1436-.4741v-3.7559h-6.2764v5.0039h-.5273v-5.5439ZM483.1768,64.4199h6.708v.564h-6.708v-.564ZM485.1562,62.416h.5283v4.8599h-.5283v-4.8599ZM485.3242,56.8838l.6729-.1318.5156,1.4761-.6602.144-.5283-1.4883ZM487.4004,62.416h.54v4.8599h-.54v-4.8599Z" style="fill:#231815;"/><path d="M502.8564,63.1362v.5879h-10.2842v-.5879h10.2842ZM502.3291,57.5918v.5884h-9.2285v-.5884h9.2285ZM494.001,59.104c.0635.0801.1299.166.1973.2578.0684.0923.1387.1904.2109.2939.2871.3921.5898.8062.9053,1.2422.3164.436.5625.7939.7383,1.0742l-.4805.3359c-.4795-.728-1.1553-1.6841-2.0273-2.8682l.4561-.3359ZM498.0205,57.8198v9.876h-.6113v-9.876h.6113ZM499.3408,61.96c.2715-.3281.6221-.79,1.0498-1.3857.4277-.5962.7744-1.0981,1.0381-1.5063l.4922.3359c-.0566.0801-.1162.168-.1807.2642-.0635.0962-.1357.1963-.2158.2998-.7754,1.0962-1.3516,1.8765-1.7275,2.3403l-.4561-.3481Z" style="fill:#231815;"/><path d="M100.0962,60.7402v.9756l-.5762,2.8164-.8481-.2881.5439-2.4961h-4.8799v-1.0078h5.7603ZM99.8882,56.9321c-.2671.3945-.731,1.0615-1.3921,2-.1919.2773-.3711.5308-.5361.7598-.1655.2295-.3066.4297-.4238.6001l-.752-.624c.2983-.4053.6558-.9062,1.0718-1.5039.416-.5972.7144-1.04.896-1.3281h-4.2397v-.9917h5.376v1.0879ZM95.7119,68.1802c.3735,0,.6133-.0586.7202-.1763.1064-.1172.1597-.3462.1597-.688v-5.9678h1.0083v6.3521c0,.5972-.123,1.0078-.3682,1.2319-.2456.2236-.6719.3359-1.2798.3359h-1.2163l-.1919-1.0879h1.168ZM95.8242,57.668l.6558.8159c.6079.7896,1.2002,1.5737,1.7759,2.3521l-.8638.3521c-.3311-.4907-.7148-1.0239-1.1523-1.6001-.4375-.5757-.7944-1.0342-1.0718-1.376l.6562-.5439ZM99.4722,68.644c1.1621-.4585,2.0532-.9331,2.6719-1.4238s1.0454-1.0215,1.2798-1.5923c.2349-.5703.3521-1.272.3521-2.104v-2.832h1.0239v2.9282c0,.96-.1548,1.7896-.4639,2.4878-.3096.6987-.8027,1.3281-1.48,1.8882s-1.5918,1.0903-2.7441,1.5918l-.6396-.9438ZM108.3682,55.876v.9922h-7.8242v-.9922h7.8242ZM107.5518,58.8999v7.1519h-.9756v-6.1919h-4.5762v6.1919h-.9761v-7.1519h6.5278ZM103.1519,59.396c.2134-.8213.4214-1.7759.624-2.8638l1.0562.0317c-.064.3628-.187.9546-.3682,1.7759l-.2559,1.0884-1.0562-.0322ZM104.3359,65.188c.4692.3628,1.1411.9146,2.0161,1.6562.8745.7412,1.5732,1.3516,2.0957,1.8315l-.6235.9282c-.1177-.1069-.2432-.2241-.3765-.3521s-.2798-.2666-.4399-.416c-.5439-.501-1.1279-1.0264-1.752-1.5762-.624-.5488-1.1333-.9839-1.5278-1.3037l.6079-.7681Z" style="fill:#1a1a1a;"/><path d="M110.3521,60.1641h2.8159v6.6079l2-1.6641.416,1.0083-3.2642,2.7036-.688-.8159c.1924-.2026.3174-.3599.376-.4717.0586-.1123.0884-.248.0884-.4082v-5.9199h-1.7441v-1.04ZM112.144,55.1401c.2983.3306.6719.7705,1.1201,1.3198.4478.5493.8477,1.0537,1.1997,1.5122l-.896.7358c-.7466-.9814-1.5039-1.936-2.272-2.8638l.8481-.7041ZM114.1118,68.5962c2.1548-.7466,3.8481-1.6187,5.0801-2.6162,1.2319-.9971,2.1147-2.1304,2.6479-3.3999h-6.1597v-1.0083h7.3438v1.0244c-.416,1.0347-.9736,1.9678-1.6719,2.7998-.6987.832-1.5947,1.5947-2.688,2.2881-1.0938.6934-2.4243,1.333-3.9922,1.9199l-.5601-1.0078ZM114.624,60.2119c.5225-.3306.9199-.6372,1.1919-.9199s.4639-.5786.5762-.8882c.1118-.3091.168-.6772.168-1.104v-1.584h5.584v2.7041c0,.3203.061.5308.1841.6318.1226.1016.3545.1523.6958.1523h1.312l-.144,1.0239h-1.6479c-.5547.0107-.9468-.0801-1.1758-.272-.2295-.1919-.3442-.5439-.3442-1.0562v-2.1919h-3.3921v1.04c0,.6187-.1733,1.1948-.52,1.728s-.9146,1.0454-1.7036,1.5361l-.7842-.8003ZM116.6558,62.228c.4482,1.0029,1.0054,1.8828,1.6724,2.6401.6665.7573,1.4961,1.4316,2.4878,2.0239.9922.5918,2.1973,1.1226,3.6162,1.5918l-.4644,1.0723c-1.4399-.5547-2.688-1.1655-3.7437-1.832-1.0562-.6665-1.9575-1.4185-2.7041-2.2563-.7466-.8369-1.3599-1.7998-1.8398-2.8877l.9756-.3521Z" style="fill:#1a1a1a;"/><path d="M125.54,124.9038c2.165-.7998,3.9092-1.6528,5.2319-2.5596s2.3623-1.9736,3.1201-3.2002c.7573-1.2266,1.3384-2.7573,1.7441-4.5923l1.1836.0645c-.4478,1.9946-1.0903,3.6772-1.9277,5.0479s-1.96,2.5601-3.3682,3.5679c-1.4077,1.0083-3.2266,1.9546-5.4561,2.8398l-.5278-1.168ZM139.3159,114.0078v1.0562h-13.6641v-1.0562h13.6641ZM129.2358,114.5039c.416,1.8457,1.0269,3.3975,1.832,4.6562s1.8804,2.3335,3.2241,3.2236c1.3442.8911,3.0664,1.688,5.168,2.3921l-.4639,1.1841c-2.2402-.8105-4.064-1.709-5.4722-2.6958-1.4077-.9868-2.5415-2.1733-3.3999-3.5601-.8589-1.3867-1.5439-3.1094-2.0562-5.168l1.168-.0322ZM132.6118,111.416c.0532.1279.2456.6079.5762,1.4399.0854.2241.1704.4429.2559.6562s.1655.416.2402.6079l-1.248.1118c-.1387-.437-.3999-1.125-.7842-2.064-.0425-.0962-.0801-.1841-.1118-.2642-.0322-.0796-.064-.1572-.0962-.2319l1.168-.2559Z" style="fill:#1a1a1a;"/><path d="M141.332,122.9839c1.5146-1.3652,2.749-2.6958,3.7041-3.9917.9546-1.2964,1.7466-2.7603,2.376-4.3921l.8159.272c-.4058,1.1733-.8857,2.2588-1.4399,3.2559-.5547.9976-1.2134,1.9683-1.9761,2.9121s-1.6777,1.9229-2.7441,2.936l-.7358-.9922ZM155.0762,114.2002v1.104h-13.1362v-1.104h13.1362ZM152.3721,122.2002v1.0879h-7.7119v-1.0879h7.7119ZM149.0601,111.5122v14.624h-1.1201v-14.624h1.1201ZM149.5718,114.5679c.6294,1.6748,1.4346,3.1655,2.416,4.4722s2.208,2.5625,3.6802,3.7681l-.7681,1.04c-1.3975-1.2056-2.624-2.5601-3.6797-4.064-1.0562-1.5044-1.8721-3.104-2.4482-4.8003l.7998-.416Z" style="fill:#1a1a1a;"/><path d="M125.521,295.3955c1.376-1.2695,2.5044-2.6113,3.3843-4.0244s1.6719-3.1387,2.376-5.1758l1.0078.2559c-.4907,1.4717-1.0215,2.7676-1.5918,3.8877-.5708,1.1201-1.2271,2.166-1.9683,3.1357-.7412.9717-1.6558,1.9844-2.7437,3.04l-.4644-1.1191ZM125.9214,288.499h13.5679v1.0723h-13.5679v-1.0723ZM128.001,293.1709l.624-.5273h9.7119v5.1357c0,.4697-.0557.8291-.168,1.0801-.1118.25-.2983.4268-.5596.5273-.2617.1016-.627.1523-1.0962.1523h-1.584l-.208-1.04h1.4722c.3091,0,.541-.0342.6958-.1035.1543-.0693.2612-.1738.3198-.3125s.0884-.3408.0884-.6084v-3.7754h-8.2563v6h-1.04v-6.5283ZM132.6572,290.5312h1.0562v10.4482h-1.0562v-10.4482Z" style="fill:#1a1a1a;"/><path d="M141.5054,300.3232c.4692-.917.8208-1.7549,1.0557-2.5117.2344-.7578.3921-1.582.4722-2.4727s.1201-2.0664.1201-3.5273v-4.624h11.0718v3.8555h-10.624v-.9922h9.5679v-1.8721h-8.9756v3.7441c0,1.4834-.0459,2.7021-.1362,3.6562-.0908.9551-.2642,1.835-.52,2.6396-.2559.8057-.624,1.6826-1.104,2.6328l-.9277-.5283ZM154.9453,292.627c0,.1816-.0215,1.0938-.064,2.7363-.0537,1.835-.0859,2.8369-.0962,3.0078-.0322.6084-.1362,1.0752-.312,1.4004s-.4614.5566-.856.6953c-.395.1387-.9707.208-1.728.208h-1.8398l-.208-1.0078h1.7759c.5864,0,1.021-.0449,1.3042-.1357.2822-.0908.48-.2402.5918-.4482s.1782-.5254.2002-.9521c.0317-.6074.0688-1.7061.1118-3.2959l.0479-1.2002h-10.208v-1.0078h11.2803ZM151.521,295.0273v3.9199h-6.0317v-3.9199h6.0317ZM146.481,298.0352h4.0322v-2.1123h-4.0322v2.1123Z" style="fill:#1a1a1a;"/><path d="M125.3159,533.3994c.2451-.5859.4321-1.1328.5601-1.6396s.2188-1.1064.272-1.7998.0801-1.6104.0801-2.752v-2.7842h6.1118v.9277h-5.168v2.2246c0,1.5254-.064,2.7197-.1919,3.584-.1279.8633-.3896,1.8232-.7842,2.8799l-.8799-.6406ZM132.356,520.9678v.96h-6.48v-.96h6.48ZM127.0601,532.9521c.8638-.3096,1.7358-.71,2.6157-1.2002.8804-.4902,1.6562-1.0078,2.3281-1.5518l.5283.7676c-.6401.5439-1.4297,1.0938-2.3682,1.6484-.939.5537-1.8398.9912-2.7041,1.3115l-.3999-.9756ZM128.1318,521.7041c.0215.1172.0508.293.0884.5273.0371.2354.0771.4961.1196.7842.1494.8428.2402,1.3818.272,1.6162l-.896.1436c-.0317-.2881-.0903-.6826-.1758-1.1836s-.1655-.9814-.2402-1.4404l-.0796-.3672.9116-.0801ZM127.4922,530.1357c.6611-.2344,1.3652-.5703,2.1118-1.0078s1.3706-.8486,1.8721-1.2324l.5117.7041c-.5015.416-1.1411.8643-1.9199,1.3438-.7788.4805-1.5093.8535-2.1919,1.1201l-.3838-.9277ZM127.5718,527.5439c.6509-.2031,1.312-.4775,1.9844-.8242.6719-.3467,1.2212-.6689,1.6479-.9678l.4639.7676c-.4478.3203-1.0215.6621-1.7197,1.0244-.6992.3623-1.3682.667-2.0083.9121l-.3682-.9121ZM129.3638,519.2715c.1816.4805.3203.8535.416,1.1201l.2563.6885h-1.1201c-.0747-.2139-.147-.4189-.2158-.6162-.0698-.1973-.1416-.3867-.2163-.5684l-.1597-.3838,1.0396-.2402ZM129.9722,524.6953c.2129-1.1514.373-2.1699.48-3.0557l.9438.0957c-.0107.0752-.0586.3311-.144.7686-.0962.6182-.2349,1.3867-.416,2.3037l-.8638-.1123ZM131.7319,533.2881c1.0771-.5977,1.8799-1.1553,2.4082-1.6719.5278-.5176.8823-1.083,1.064-1.6963.1812-.6133.272-1.416.272-2.4082v-2.3682h.9917l-.0156,2.5918c0,1.0781-.1069,1.958-.3203,2.6406s-.6079,1.3115-1.1836,1.8877c-.5762.5762-1.4351,1.2051-2.5762,1.8877l-.6401-.8633ZM139.5239,520.3281v.9912h-6.7837v-.9912h6.7837ZM138.8521,523.2559v6.9922h-.96v-6.0479h-3.8403v6.0479h-.9756v-6.9922h5.7759ZM134.8682,523.6553c.0957-.3838.2451-1.0176.4478-1.9033.064-.3525.1226-.6299.1763-.832l1.0078.0322c-.0747.3838-.1709.8262-.2881,1.3271-.1172.502-.2295.9717-.3359,1.4082l-1.0078-.0322ZM135.9399,529.752c.48.4375,1.1147,1.0293,1.9043,1.7754.7891.7471,1.376,1.3184,1.7598,1.7129l-.7041.8154c-.3521-.416-.8828-.9736-1.5918-1.6719-.7095-.6982-1.3521-1.3096-1.9282-1.832l.5601-.7998Z" style="fill:#1a1a1a;"/><path d="M141.4761,524.5039c.917-.7256,1.7705-1.541,2.5601-2.4482.7891-.9062,1.4453-1.8398,1.9678-2.7998l1.0239.4639c-.6187,1.0986-1.3306,2.1152-2.1357,3.0479-.8057.9336-1.6987,1.7998-2.6802,2.6006l-.7358-.8643ZM143.0918,524.0234h10.8643v4.9287h-10.2881v-.9766h9.2158v-2.9277h-8.7036v5.9199c0,.4268.0449.749.1357.9678s.2534.3711.4883.4561c.2344.0859.5757.1279,1.0239.1279h6.688c.4263,0,.7466-.0322.96-.0957.2134-.0645.3682-.1758.4639-.3359.0962-.1602.1548-.4102.1763-.752.0103-.2451.021-.5283.0317-.8486.0107-.3193.0161-.5811.0161-.7832l1.0239.2393-.0479,1.0889c-.0215.373-.0322.6182-.0322.7354-.0317.4697-.1226.832-.272,1.0879s-.3896.4375-.7197.5439c-.3311.1064-.7949.1602-1.3921.1602h-7.2642c-.5869,0-1.0508-.0742-1.3921-.2236s-.5894-.3926-.7437-.7285c-.1548-.3359-.2324-.792-.2324-1.3672v-7.2168ZM145.1719,520.8242h7.1841v.8955l-2.5601,2.96-1.0557-.416,2.2236-2.4482h-5.792v-.9912ZM147.9722,524.6641h1.0557v3.7119h-1.0557v-3.7119Z" style="fill:#1a1a1a;"/><path d="M141.624,173.7061c1.8853-.6719,3.4019-1.3931,4.5498-2.1631s2.0488-1.6802,2.7021-2.73,1.1479-2.3638,1.4839-3.9409l1.3301.042c-.3921,1.7734-.9565,3.2598-1.6938,4.459s-1.7246,2.2397-2.9609,3.1221c-1.2368.8818-2.8398,1.71-4.8091,2.4849l-.6021-1.2739ZM153.79,164.27v1.1621h-12.0542v-1.1621h12.0542ZM145.04,164.8301c.3638,1.5869.8936,2.9189,1.5889,3.9971.6953,1.0776,1.6289,1.9971,2.8003,2.7578,1.1709.7607,2.6714,1.4307,4.501,2.0093l-.5742,1.3018c-1.96-.7188-3.5605-1.5098-4.8018-2.373-1.2417-.8633-2.2402-1.9038-2.9961-3.1221-.7559-1.2178-1.3579-2.7319-1.8062-4.543l1.2881-.0278ZM148.0498,162.0859c.0376.0933.1963.5088.4761,1.2461.0747.1772.147.3569.2173.5391.0698.1821.1328.3569.189.5249l-1.3862.1538c-.1025-.3452-.3174-.938-.644-1.7778-.0186-.084-.042-.1611-.0698-.231s-.0562-.1377-.084-.2031l1.3018-.252Z" style="fill:#1a1a1a;"/><path d="M155.6382,169.856h12.2217v1.1621h-12.2217v-1.1621ZM156.0859,163.7378h11.3398v2.9824h-1.2178v-1.8203h-8.9321v1.8203h-1.1899v-2.9824ZM157.8643,166.3979h7.7417v1.1343l-3.0381,2.0576v3.416c0,.4951-.0488.8682-.147,1.1201-.0977.252-.2705.4224-.5181.5112-.2471.0884-.6182.1328-1.1128.1328h-1.9038l-.2241-1.1479h1.708c.2798,0,.4849-.0234.6157-.0703.1309-.0464.2173-.1348.2593-.2656s.063-.3359.063-.6162v-3.5278l2.3379-1.5962h-5.7817v-1.1479ZM160.79,162.2402l1.3018-.2803.896,2.1143-1.2739.3076-.9238-2.1416Z" style="fill:#1a1a1a;"/><path d="M169.6099,173.7759c1.0923-.5972,2.0488-1.2739,2.8701-2.0298s1.4678-1.6055,1.939-2.5479c.4712-.9429.707-1.9556.707-3.0381v-3.9761h1.2739v3.9761c0,1.269-.2588,2.4404-.7769,3.5137-.5181,1.0737-1.2202,2.0396-2.1069,2.8979-.8867.8589-1.9321,1.6616-3.1362,2.4082l-.77-1.2041ZM181.6919,165.5718v1.2041h-11.8159v-1.2041h11.8159ZM176.2319,166.272c.1772,1.1201.4922,2.1211.9453,3.0029.4521.8823,1.0728,1.6895,1.8618,2.4219.7886.7329,1.7754,1.4165,2.9609,2.0513l-.7559,1.1758c-1.7734-1.0264-3.1455-2.1953-4.1162-3.5068-.9707-1.311-1.5771-2.7461-1.8198-4.3052l.9238-.8398Z" style="fill:#1a1a1a;"/><path d="M183.4282,171.998c.5225-.9707,1.0098-2.1118,1.4629-3.4229.4526-1.3115.8047-2.5317,1.0571-3.6611l1.2876.252c-.2988,1.2598-.6812,2.5527-1.1479,3.8779-.4668,1.3257-.9614,2.4922-1.4839,3.5l-1.1758-.5459ZM188.1318,173.3979c.3267,0,.5649-.0278.7144-.084.1489-.0562.2495-.1587.3008-.3081.0513-.1489.0771-.3872.0771-.7139v-9.9541h1.3301v10.3462c0,.5229-.0679.9287-.2031,1.2178-.1353.2896-.3525.4902-.6509.6021-.2988.1123-.728.168-1.2881.168h-1.75l-.252-1.2739h1.7217ZM193.0879,164.7461c.3267.6909.749,1.6611,1.2671,2.9121.5181,1.2505.9731,2.3936,1.3652,3.4297l.3638,1.0083-1.2881.5317c-.3359-1.0264-.7935-2.2842-1.3721-3.7729s-1.0825-2.709-1.5117-3.6611l1.1758-.4478Z" style="fill:#1a1a1a;"/><path d="M141.6099,231.9438c1.0923-.5972,2.0488-1.2739,2.8701-2.0298s1.4678-1.6055,1.939-2.5479c.4712-.9429.707-1.9556.707-3.0381v-3.9761h1.2739v3.9761c0,1.269-.2588,2.4404-.7769,3.5137-.5181,1.0737-1.2202,2.0396-2.1069,2.8979-.8867.8589-1.9321,1.6616-3.1362,2.4082l-.77-1.2041ZM153.6919,223.7397v1.2041h-11.8159v-1.2041h11.8159ZM148.2319,224.4399c.1772,1.1201.4922,2.1211.9453,3.0029.4521.8823,1.0728,1.6895,1.8618,2.4219.7886.7329,1.7754,1.4165,2.9609,2.0513l-.7559,1.1758c-1.7734-1.0264-3.1455-2.1953-4.1162-3.5068-.9707-1.311-1.5771-2.7461-1.8198-4.3052l.9238-.8398Z" style="fill:#1a1a1a;"/><path d="M155.4282,230.166c.5225-.9707,1.0098-2.1118,1.4629-3.4229.4526-1.3115.8047-2.5317,1.0571-3.6611l1.2876.252c-.2988,1.2598-.6812,2.5527-1.1479,3.8779-.4668,1.3257-.9614,2.4922-1.4839,3.5l-1.1758-.5459ZM160.1318,231.5659c.3267,0,.5649-.0278.7144-.084.1489-.0562.2495-.1587.3008-.3081.0513-.1489.0771-.3872.0771-.7139v-9.9541h1.3301v10.3462c0,.5229-.0679.9287-.2031,1.2178-.1353.2896-.3525.4902-.6509.6021-.2988.1123-.728.168-1.2881.168h-1.75l-.252-1.2739h1.7217ZM165.0879,222.9141c.3267.6909.749,1.6611,1.2671,2.9121.5181,1.2505.9731,2.3936,1.3652,3.4297l.3638,1.0083-1.2881.5317c-.3359-1.0264-.7935-2.2842-1.3721-3.7729s-1.0825-2.709-1.5117-3.6611l1.1758-.4478Z" style="fill:#1a1a1a;"/><path d="M169.8062,229.2559h8.6377v1.1343h-8.6377v-1.1343ZM170.1562,221.0659h11.2979v2.8701h-1.2183v-1.7358h-8.9038v1.792h-1.1758v-2.9263ZM171.7241,227.856l.5737-5.0122h1.2183l-.4482,3.9204h7.7002c-.0093.1211-.0234.3872-.042.7979-.0278.6348-.0586,1.2529-.0908,1.855-.0332.6021-.0635,1.043-.0913,1.3228-.0469.5322-.1538.9502-.3218,1.2534s-.4272.5249-.7773.665c-.3496.1396-.8188.21-1.4067.21h-2.1001l-.2241-1.1201h1.9883c.5601,0,.9565-.0957,1.1899-.2871.2329-.1909.373-.5298.4199-1.0151.0371-.3452.0723-.7812.105-1.3086s.0581-.9546.0771-1.2812h-7.77ZM172.6338,225.1538l.1401-1.064h7.1123v1.064h-7.2524Z" style="fill:#1a1a1a;"/><path d="M357.8623,226.1758c.4199-.6157.8799-1.5049,1.3789-2.667.499-1.1616.8799-2.2749,1.1416-3.3389l1.0352.2383c-.3545,1.353-.7812,2.625-1.2803,3.8149-.5,1.1899-1.0947,2.2935-1.7852,3.311l-.4902-1.3584ZM360.3682,223.1938v9.772h-1.0635v-9.0718l1.0635-.7002ZM362.3984,222.2559v8.498h-.9941v-8.498h.9941ZM362.4404,232.0562c1.4092-.3643,2.7441-.8262,4.0039-1.3862s2.375-1.1992,3.3457-1.918l.5605.7979c-1.8857,1.4937-4.3818,2.646-7.4902,3.458l-.4199-.9517ZM362.5527,223.5161c.5127-.4385,1.001-.9707,1.4629-1.5962.4619-.625.8369-1.2549,1.127-1.8901l.9941.3501c-.3359.7563-.7539,1.4771-1.2529,2.1631-.5.686-1.0625,1.2998-1.6875,1.8408l-.6436-.8677ZM362.5801,225.6719c1.5312-.4292,2.7373-.9121,3.6191-1.4487s1.584-1.2017,2.1074-1.9951h-3.5703v-.98h4.8584v.938c-.4014.6909-.8848,1.3018-1.4492,1.834-.5654.5317-1.2627,1.0151-2.0928,1.4492-.8311.4336-1.8438.8423-3.0381,1.2246l-.4346-1.022ZM363.1123,229.8721c.9893-.2891,1.96-.6626,2.9121-1.1201.9521-.457,1.8291-.9658,2.6318-1.5259l.5605.7979c-.7939.5791-1.6807,1.1084-2.6602,1.5889-.9805.481-1.9697.8662-2.9688,1.1553l-.4756-.896ZM363.1826,227.772c.8301-.2612,1.6191-.562,2.3662-.9028.7461-.3408,1.4277-.7119,2.0439-1.1133l.4893.812c-.6621.439-1.3721.8428-2.1279,1.2109-.7559.3691-1.5254.6841-2.3096.9453l-.4619-.9521ZM364.7227,222.0181c.541.8682,1.2715,1.5796,2.1904,2.1348.9199.5557,2.1162.9873,3.5908,1.2954l-.3779,1.0498c-1.0635-.2705-1.9717-.5786-2.7227-.9238s-1.4023-.7539-1.9531-1.2251-1.0498-1.0479-1.498-1.729l.7705-.6021Z" style="fill:#1a1a1a;"/><path d="M371.8203,225.3081c.4482-.7466.835-1.5562,1.1621-2.4292.3262-.8726.6064-1.8174.8398-2.835l1.0918.2241c-.252,1.1387-.5781,2.2236-.9795,3.2549s-.8779,2.0044-1.4287,2.9189l-.6855-1.1338ZM373.1924,231.5381c.168-.1587.2803-.3032.3359-.4341.0557-.1304.084-.2939.084-.4902v-5.9497h1.0918v5.8101l1.5684-1.3721.3496,1.1621-2.7861,2.2539-.6436-.98ZM373.5703,223.0259l.3223-1.0918h2.7861v1.064l-.8545,2.3799-.8535-.3359.6855-2.0161h-2.0859ZM376.5244,224.188c.4287-.7002.8066-1.3975,1.1338-2.0928s.5928-1.3979.7979-2.1074l1.1064.2803c-.3359.98-.6631,1.813-.9805,2.499s-.6904,1.3647-1.1201,2.0371l-.9375-.6162ZM377.126,225.3501h6.6641v4.606c0,.4014-.0439.7119-.1328.9312s-.2354.3755-.4404.4688c-.2061.0933-.4951.1401-.8682.1401h-.8125l-.1953-1.0923h.6436c.2051,0,.3613-.0229.4688-.0698.1074-.0464.1826-.1235.2246-.231s.0625-.2729.0625-.4971v-3.1919h-4.5635v5.166h-1.0508v-6.23ZM378.3584,221.71h5.9502v1.0918h-5.9502v-1.0918ZM379.8984,223.3481h1.0781v9.646h-1.0781v-9.646Z" style="fill:#1a1a1a;"/><path d="M385.792,224.0898c.2803-.5132.5625-1.1406.8477-1.8828.2842-.7422.5156-1.458.6924-2.1489l.9941.21c-.2148.8213-.4785,1.6309-.791,2.4287-.3125.7983-.6885,1.5752-1.127,2.3311l-.6162-.938ZM385.9746,227.1001h3.4434v1.022h-3.4434v-1.022ZM386.4785,224.356h2.7295v1.0078h-2.7295v-1.0078ZM386.7725,231.7061c.1396-.1118.2402-.2173.3008-.3149.0605-.0981.0908-.2261.0908-.3853v-6.2998h.9805v6.1738l1.2734-.98.1826,1.1201-2.2266,1.6382-.6016-.9521ZM387.0244,221.9058h2.4922v1.0225h-2.4922v-1.0225ZM388.9141,232.168c.8027-.9053,1.3936-1.834,1.7715-2.7861.3779-.9517.6035-2.0669.6787-3.3457h-1.6377v-1.022l1.624-2.9121h-1.5127v-1.0361h2.5625v1.0503l-1.5957,2.8979h1.54v1.0078c-.1123,1.0454-.2617,1.939-.4482,2.6812-.1865.7417-.4482,1.4468-.7842,2.1138-.3359.6675-.7979,1.3789-1.3857,2.1353l-.8125-.7842ZM390.3428,227.0161c.2139.9238.4893,1.7056.8252,2.3447.3359.6396.7822,1.1411,1.3369,1.5054.5557.3638,1.2393.5459,2.0518.5459h3.8496l-.1816,1.0361h-3.752c-.8311,0-1.5596-.1494-2.1846-.4482s-1.1738-.8213-1.6445-1.5679c-.4717-.7466-.8477-1.7783-1.127-3.0942l.8262-.3218ZM392.3584,229.0459h5.8379v.896h-5.8379v-.896ZM392.4844,223.25h5.9219v.896h-5.9219v-.896ZM392.7783,227.1279h5.082v.896h-5.082v-.896ZM392.8623,225.21h3.8779v-3.0239h-3.8643v-.896h4.7881v4.8159h-4.8018v-.896ZM394.5146,220.1558h.9795v10.9482h-.9795v-10.9482Z" style="fill:#1a1a1a;"/><path d="M481.3047,225.8442c.2881-.4321.6055-.9961.9541-1.6924.3477-.6958.6416-1.356.8818-1.98l.5273.168c-.2158.5601-.4873,1.1782-.8154,1.854-.3281.6763-.6045,1.2144-.8281,1.6143l1.6562-.1562-.0967.54-2.1719.228-.1074-.5757ZM481.3047,231.3398c.1836-.0239.708-.1157,1.5713-.2759.3525-.064.666-.1177.9424-.1621.2764-.0435.4824-.0815.6182-.1138l.0479.564c-.168.0322-.5439.1001-1.1279.2041s-1.124.2002-1.6201.2881l-.3838.0718-.0479-.5762ZM481.4961,228.7959c.4561-.5918.9287-1.3037,1.416-2.1357.4883-.832.9043-1.6118,1.248-2.3403l.4688.228c-.2969.6479-.6807,1.3882-1.1523,2.2202-.4727.832-.8721,1.4839-1.2002,1.9561l1.7764-.252.0234.5757-2.4473.3604-.1328-.6123ZM484.292,228.7358c.3525-.4556.7002-1.0498,1.0449-1.7817.3438-.7319.6318-1.4819.8633-2.25l.5039.1318c-.248.8403-.5596,1.6543-.9355,2.4419-.376.7881-.7646,1.4541-1.1641,1.998l-.3125-.54ZM484.9766,223.4199h6.4678v1.4883h-.54v-.936h-5.3877v1.3198h-.54v-1.8721ZM485.4922,226.792l.5283-.2041v6.3481h-.5283v-6.144ZM486.8369,225.3999h4.752v.5283h-4.752v-.5283ZM487.2568,227.3442h3.7197v5.5679h-.5166v-5.0522h-2.6758v5.0522h-.5273v-5.5679ZM487.5322,231.6519h3.1924v.5044h-3.1924v-.5044ZM487.5439,229.4683h3.1807v.5156h-3.1807v-.5156ZM488.252,222.0039c.0488.1123.1689.4761.3604,1.0923.0879.2798.1523.4878.1924.624l-.624.0117c-.04-.1597-.1182-.4258-.2344-.7979s-.21-.646-.2822-.8223l.5879-.1079ZM488.5645,227.5479c.168-.7036.292-1.332.3721-1.8838l.5283.0239c-.041.272-.0947.5903-.1621.9541-.0684.3643-.1348.6777-.1982.9419l-.54-.0361Z" style="fill:#231815;"/><path d="M493.4004,229.8643h7.3916v.5757h-7.3916v-.5757ZM493.8682,222.8081h9.252v2.2559h-.6113v-1.6797h-8.0283v1.7036h-.6123v-2.2798ZM495.2246,228.2681l.4561-4.248.6113.0122-.3955,3.6597h6.624c-.0078.1123-.0205.3442-.0361.6963-.0244.4961-.0518.9897-.084,1.4819-.0322.4917-.0596.834-.084,1.0259-.04.416-.1338.7461-.2822.9902-.1475.2441-.3682.4238-.6602.54-.292.1157-.6777.1738-1.1572.1738h-1.8008l-.1074-.5762h1.752c.5518,0,.9502-.0938,1.1943-.2817.2432-.188.3936-.5142.4492-.978.0244-.2319.0547-.6221.0898-1.1699.0361-.5479.0625-.9902.0781-1.3262h-6.6475ZM495.8008,225.9399l.0596-.5518h6.0957v.5518h-6.1553Z" style="fill:#231815;"/><path d="M505.1367,228.748c2.0479-.5679,3.7578-1.2422,5.1299-2.022,1.3721-.7803,2.5381-1.7261,3.498-2.8379h-5.0879l.1553-.5762h5.7246v.5762c-1.0244,1.272-2.2627,2.3359-3.7139,3.1919-1.4521.856-3.2822,1.6001-5.4902,2.2319l-.2158-.564ZM505.4844,225.8682c.7676-.4961,1.5361-1.1104,2.3037-1.8423.7686-.7319,1.3887-1.438,1.8604-2.1177l.5518.2397c-.4961.7441-1.1279,1.4902-1.8955,2.2383-.7686.748-1.584,1.4141-2.4482,1.998l-.3721-.5161ZM507.6807,224.4038c.9199.6963,1.6953,1.2842,2.3281,1.7642l-.4082.4683c-.168-.1362-.3564-.2842-.5645-.4443-.208-.1597-.4199-.3237-.6357-.4917-.208-.1602-.4062-.314-.5938-.4619-.1885-.1479-.3584-.2822-.5098-.4023l.3838-.4321ZM507.416,228.292l.5049-.2158h6.6475v4.7998h-.5996v-4.2241h-5.9521v4.2241h-.6006v-4.584ZM507.7168,231.5322h6.5273v.54h-6.5273v-.54Z" style="fill:#231815;"/><path d="M142.0161,395.7578h11.0737v12.1943h-1.1196v-11.1445h-8.8203v11.1445h-1.1338v-12.1943ZM142.6738,406.2295h9.5762v1.0225h-9.5762v-1.0225ZM143.4302,401.6797c1.4463-.3447,2.6479-.7422,3.605-1.1895.9565-.4482,1.7334-.9668,2.3311-1.5547h-4.0601l.1958-.8398h5.208v.8398c-.6157.5977-1.2295,1.1113-1.8408,1.54-.6113.4297-1.3208.8193-2.1279,1.1689-.8076.3506-1.7808.6836-2.9189,1.001l-.3921-.9658ZM143.5,399.7061c.4761-.3457.9263-.7559,1.3511-1.2324.4248-.4756.7954-.9561,1.1128-1.4414l.896.3076c-.0278.0469-.0581.0957-.0908.1465-.0327.0518-.063.1006-.0908.1475-.3643.541-.7656,1.0498-1.2041,1.5264-.439.4756-.915.9004-1.4282,1.2734l-.5459-.7275ZM144.5503,403.7939l1.6519.3076c1.9131.374,3.2852.6631,4.1157.8682l-.168.8965c-.6719-.1592-1.6006-.3594-2.7856-.6025-1.1855-.2422-2.1655-.4336-2.9404-.5742l.1265-.8955ZM145.6562,398.6553c.4946.5791,1.043,1.0527,1.645,1.4219.6016.3682,1.2529.665,1.9526.8887.7002.2236,1.5073.415,2.4224.5742l-.3921.9795c-1.1016-.252-2.0327-.5293-2.793-.833-.7607-.3027-1.4233-.6602-1.9883-1.0703-.5645-.4111-1.1035-.9199-1.6167-1.5264l.77-.4346ZM145.6841,402.1133c.9424.1777,1.6147.3086,2.0161.3926.3452.0654.6836.1328,1.0146.2031.3315.0693.6465.1377.9453.2031l-.1401.8818c-.5415-.1406-1.1948-.2852-1.96-.4346-.7656-.1484-1.4419-.2744-2.0298-.3779l.1538-.8682Z" style="fill:#1a1a1a;"/><path d="M155.2461,403.2061c.4014-.5977.8188-1.416,1.2529-2.457s.7441-2,.9312-2.877l.5039,1.3857c-.252.9424-.5952,1.9248-1.0288,2.9473-.4341,1.0215-.8848,1.8877-1.3511,2.5967l-.3081-1.5957ZM159.7681,397.8994v1.1348h-4.2422v-1.1348h4.2422ZM158.2842,395.3379v12.7119h-1.1479v-12.7119h1.1479ZM158.0879,400.3359c.0469.0371.0957.0771.147.1191s.105.0859.1611.1328c.7095.5596,1.2646,1.0361,1.666,1.4277l-.5879.8965c-.1494-.1494-.3037-.3018-.4619-.4551-.1592-.1543-.3223-.3057-.4902-.4551-.4575-.4014-.7837-.6768-.98-.8262l.5459-.8398ZM159.1938,406.1875c.3828-.6348.7466-1.3438,1.0923-2.1279.3452-.7842.6206-1.5254.8257-2.2256l1.0781.3916c-.2241.7373-.5107,1.5195-.8608,2.3447-.3501.8262-.707,1.5527-1.0708,2.1777l-1.0645-.5605ZM167.7622,399.6357v1.1484h-7.896v-1.1484h7.896ZM167.2021,396.1074v1.1904h-6.7339v-1.1904h6.7339ZM162.4141,406.6641c.2334,0,.4038-.0166.5112-.0488.1069-.0332.1792-.0986.2168-.1963.0371-.0986.0605-.25.0698-.4551v-5.6279h1.1763v6.1035c0,.374-.0518.6602-.1543.8613-.1025.2002-.2637.3447-.4829.4336s-.5249.1338-.917.1338h-1.3721l-.2656-1.2041h1.2178ZM166.082,401.8193c.457,1.0361,1.0591,2.5205,1.8062,4.4521l-1.1201.4199c-.7373-2.0811-1.3066-3.5605-1.708-4.4375l1.022-.4346Z" style="fill:#1a1a1a;"/><path d="M141.3022,461.3174c.5879-.5498,1.1221-1.1729,1.603-1.8682.4805-.6953.917-1.4541,1.3086-2.2754l1.022.4336c-.4668,1.0273-.9565,1.9072-1.4697,2.6396-.5137.7324-1.167,1.458-1.96,2.1768l-.5039-1.1064ZM141.3579,456.8516c.4014-.4014.8354-.9844,1.3022-1.75.4663-.7646.8306-1.4414,1.0918-2.0303l1.106.2803c-.2798.71-.6675,1.4658-1.1616,2.2686-.4951.8027-1.0132,1.5166-1.5542,2.1416l-.7842-.9102ZM143.4858,454.4297h4.2842v1.0781h-4.8018l.5176-1.0781ZM143.3042,459.0361l1.1616-.4062v7.2656h-1.1616v-6.8594ZM145.3062,455.1719c.0933.1396.2007.2959.3218.4688s.2476.3477.3779.5254c.1772.2891.2896.4707.3364.5459l-.9521.5322c-.0562-.0938-.1167-.1943-.1821-.3018-.0654-.1064-.1401-.2168-.2241-.3291-.1494-.2324-.2939-.4541-.4336-.6641-.1401-.2109-.271-.3994-.3921-.5674l1.1479-.21ZM145.3198,458.9658h8.4004v1.1758h-8.4004v-1.1758ZM146.8882,460.5342c.2705.2988.5972.6621.98,1.0918.3823.4287.6997.7979.9517,1.1055l-.9097.8262c-.2334-.3174-.5371-.6904-.9102-1.1201-.3735-.4287-.7046-.8027-.9941-1.1201l.8823-.7832ZM147.042,457.0342c.8306-1.1387,1.5215-2.4688,2.0723-3.9902l1.064.3223c-.2803.8027-.5952,1.5518-.9453,2.2461-.3496.6963-.7441,1.3467-1.1826,1.9531l-1.0083-.5312ZM149.5059,464.6221c.3174,0,.5464-.0215.686-.0635.1401-.042.2358-.1191.2871-.2305.0513-.1123.0771-.2852.0771-.5186v-6.2578h1.1899v6.6084c0,.4287-.0562.7627-.168,1.001-.1123.2373-.3037.4053-.5742.5039-.2705.0977-.6577.1465-1.1616.1465h-1.7783l-.2378-1.1895h1.6797ZM148.9883,454.4297h4.6758v1.0781h-5.166l.4902-1.0781ZM151.0601,455.0596c.4946.7373.8306,1.2744,1.0078,1.6104l-.9097.5322c-.103-.168-.208-.3457-.3149-.5322-.1074-.1865-.2222-.3779-.3433-.5742-.084-.1309-.1636-.2568-.2378-.3779-.0752-.1211-.145-.2334-.21-.3359l1.0078-.3223Z" style="fill:#1a1a1a;"/><path d="M167.8179,458.7695v1.0645h-12.4878v-1.0645h12.4878ZM166.0122,453.7441v3.8213h-8.918v-3.8213h8.918ZM157.8921,459.3018l1.3018.0283-.3779,1.8613h7.0981l-.0698.8545c-.019.3359-.042.6582-.0703.9658-.0278.3076-.0513.5596-.0698.7559-.0654.542-.1797.9502-.3433,1.2256-.1631.2744-.4224.4658-.7769.5732-.355.1074-.8726.1611-1.5537.1611h-2.9824l-.2236-1.1758h2.8418c.4761,0,.8237-.0234,1.043-.0703.2192-.0459.3755-.1396.4692-.2793.0933-.1406.1538-.3779.1816-.7148.0093-.0557.0166-.1182.021-.1885.0049-.0703.0117-.1426.021-.2168.0376-.2432.0654-.5273.084-.8545h-7.21l.6162-2.9258ZM158.354,456.5293h6.4263v-1.7354h-6.4263v1.7354Z" style="fill:#1a1a1a;"/></svg>